<?xml version="1.0" encoding="utf-8"?>
<!-- Generator: Adobe Illustrator 16.0.0, SVG Export Plug-In . SVG Version: 6.00 Build 0)  -->
<!DOCTYPE svg PUBLIC "-//W3C//DTD SVG 1.1//EN" "http://www.w3.org/Graphics/SVG/1.1/DTD/svg11.dtd">
<svg version="1.1" id="Layer_1" xmlns="http://www.w3.org/2000/svg" xmlns:xlink="http://www.w3.org/1999/xlink" x="0px" y="0px"
	 width="612px" height="612px" viewBox="0 0 612 612" enable-background="new 0 0 612 612" xml:space="preserve">
<g>
	<path fill-rule="evenodd" clip-rule="evenodd" d="M87.438,608.5V3.781l173.447-0.278c61.172-0.098,125.783,2.233,183.735,42.981
		c33.765,23.741,49.688,51.065,62.838,85.925c13.171,34.898,19.111,75.776,16.501,119.74
		c-3.547,59.749-25.497,140.922-80.605,180.11C345.912,501.549,212.573,499.548,87.438,608.5L87.438,608.5z M154.238,475.917
		c77.275-70.797,197.674-36.778,262.149-124.127c38.472-52.118,44.326-165.941,7.748-225.576
		c-42.76-69.715-108.015-63.735-164.307-63.645l-105.59,0.17V475.917z"/>
	<path fill-rule="evenodd" clip-rule="evenodd" d="M220.428,123.86v266.982c42.792-45.746,109.461-23.765,145.166-80.206
		c21.303-33.678,24.544-107.227,4.289-145.76c-23.678-45.049-59.813-41.185-90.985-41.125L220.428,123.86z"/>
</g>
</svg>
