<?xml version="1.0" encoding="utf-8"?>
<!-- Generator: Adobe Illustrator 16.0.0, SVG Export Plug-In . SVG Version: 6.00 Build 0)  -->
<!DOCTYPE svg PUBLIC "-//W3C//DTD SVG 1.1//EN" "http://www.w3.org/Graphics/SVG/1.1/DTD/svg11.dtd">
<svg version="1.1" id="Layer_1" xmlns="http://www.w3.org/2000/svg" xmlns:xlink="http://www.w3.org/1999/xlink" x="0px" y="0px"
	 width="612px" height="612px" viewBox="0 0 612 612" enable-background="new 0 0 612 612" xml:space="preserve">
<path fill-rule="evenodd" clip-rule="evenodd" d="M68.123,433.138c0,3.412-0.599,6.544-1.772,9.408
	c-1.186,2.865-2.825,5.331-4.904,7.396c-2.079,2.079-4.558,3.691-7.423,4.864s-5.97,1.759-9.329,1.759H17.283
	c-0.72,0-1.399-0.133-2.026-0.386c-0.626-0.267-1.16-0.627-1.626-1.08c-0.453-0.453-0.813-0.999-1.066-1.612
	c-0.267-0.626-0.386-1.306-0.386-2.039v-45.75c0-0.706,0.12-1.372,0.386-1.999c0.253-0.626,0.613-1.172,1.066-1.639
	c0.466-0.467,1-0.826,1.626-1.093c0.626-0.253,1.306-0.387,2.026-0.387h27.412c3.358,0,6.463,0.587,9.329,1.76
	s5.344,2.785,7.423,4.851c2.079,2.079,3.718,4.544,4.904,7.423c1.173,2.878,1.772,6.01,1.772,9.396V433.138L68.123,433.138z
	 M57.968,424.01c0-1.986-0.32-3.799-0.959-5.438c-0.64-1.64-1.533-3.039-2.706-4.198c-1.173-1.146-2.572-2.052-4.198-2.691
	c-1.625-0.64-3.438-0.96-5.411-0.96H22.32v35.688h22.375c1.973,0,3.785-0.319,5.411-0.946c1.626-0.64,3.025-1.546,4.198-2.705
	s2.066-2.546,2.706-4.171c0.64-1.626,0.959-3.438,0.959-5.451V424.01z"/>
<rect x="104.145" y="400.581" fill-rule="evenodd" clip-rule="evenodd" width="10.155" height="55.984"/>
<path fill-rule="evenodd" clip-rule="evenodd" d="M200.068,403.62c0.386,0.919,0.506,1.865,0.346,2.878
	c-0.146,1-0.56,1.853-1.239,2.559l-33.503,37.354h34.316v10.154h-45.75c-1,0-1.906-0.279-2.758-0.839
	c-0.84-0.56-1.479-1.293-1.893-2.213c-0.44-0.906-0.573-1.852-0.413-2.838c0.173-1,0.586-1.853,1.239-2.586l33.569-37.367h-34.396
	v-10.142h45.843c0.986,0,1.906,0.28,2.746,0.84C199.029,401.98,199.655,402.714,200.068,403.62z"/>
<rect x="235.277" y="400.581" fill-rule="evenodd" clip-rule="evenodd" width="10.155" height="55.984"/>
<polygon fill-rule="evenodd" clip-rule="evenodd" points="333.039,410.723 310.678,410.723 310.678,456.565 300.523,456.565 
	300.523,410.723 278.108,410.723 278.108,400.581 333.039,400.581 "/>
<path fill-rule="evenodd" clip-rule="evenodd" d="M420.581,456.565h-10.154v-13.739h-35.688v13.739h-10.155v-27.998
	c0-4.078,0.706-7.85,2.105-11.274c1.413-3.438,3.358-6.396,5.864-8.862c2.492-2.479,5.45-4.397,8.862-5.783
	c3.411-1.373,7.129-2.066,11.167-2.066h22.882c0.692,0,1.359,0.134,1.985,0.387c0.627,0.267,1.173,0.626,1.64,1.093
	c0.466,0.467,0.839,1.013,1.093,1.639c0.266,0.627,0.399,1.293,0.399,1.999V456.565L420.581,456.565z M374.738,432.672h35.688
	v-21.949h-17.845c-0.32,0-0.973,0.054-1.972,0.146c-1,0.094-2.159,0.32-3.479,0.68c-1.307,0.36-2.692,0.92-4.158,1.68
	c-1.452,0.76-2.798,1.799-4.024,3.118c-1.213,1.333-2.226,2.998-3.025,4.984c-0.786,1.985-1.186,4.397-1.186,7.236V432.672z"/>
<path fill-rule="evenodd" clip-rule="evenodd" d="M514.319,419.398c0,2.318-0.293,4.384-0.866,6.21
	c-0.573,1.813-1.346,3.425-2.319,4.824c-0.972,1.386-2.105,2.572-3.385,3.571c-1.266,0.986-2.599,1.799-3.998,2.439
	c-1.386,0.639-2.798,1.093-4.211,1.386c-1.426,0.279-2.758,0.426-4.011,0.426l21.202,18.311h-15.686l-21.162-18.311h-7.303v-10.154
	h22.948c1.279-0.106,2.452-0.373,3.505-0.8s1.959-1.013,2.731-1.732c0.76-0.733,1.359-1.612,1.772-2.639
	c0.413-1.025,0.627-2.199,0.627-3.531v-6.41c0-0.573-0.067-0.999-0.214-1.306c-0.146-0.294-0.333-0.521-0.546-0.653
	c-0.227-0.146-0.453-0.24-0.707-0.267c-0.253-0.026-0.479-0.04-0.679-0.04h-33.503v45.843h-10.155v-50.867
	c0-0.706,0.134-1.372,0.4-1.999c0.253-0.626,0.612-1.172,1.065-1.639s1-0.826,1.626-1.093c0.627-0.253,1.307-0.387,2.025-0.387
	h38.541c2.265,0,4.171,0.413,5.729,1.227c1.573,0.826,2.839,1.853,3.812,3.092c0.973,1.226,1.68,2.559,2.105,3.998
	c0.44,1.426,0.653,2.771,0.653,4.024V419.398z"/>
<polygon fill-rule="evenodd" clip-rule="evenodd" points="599.822,410.723 577.46,410.723 577.46,456.565 567.306,456.565 
	567.306,410.723 544.891,410.723 544.891,400.581 599.822,400.581 "/>
<g>
	<path fill-rule="evenodd" clip-rule="evenodd" d="M302.053,358.435v-255.95l73.412-0.118c25.892-0.042,53.238,0.945,77.767,18.192
		c14.291,10.049,21.03,21.614,26.597,36.368c5.574,14.771,8.089,32.073,6.984,50.681c-1.502,25.289-10.792,59.646-34.117,76.232
		C411.453,313.167,355.017,312.32,302.053,358.435L302.053,358.435z M330.326,302.318c32.707-29.965,83.666-15.566,110.956-52.537
		c16.283-22.06,18.761-70.236,3.279-95.477c-18.099-29.507-45.718-26.976-69.544-26.938l-44.691,0.072V302.318z"/>
	<path fill-rule="evenodd" clip-rule="evenodd" d="M358.341,153.309V266.31c18.112-19.362,46.33-10.058,61.442-33.947
		c9.017-14.254,10.389-45.384,1.815-61.694c-10.021-19.067-25.316-17.432-38.51-17.406L358.341,153.309z"/>
</g>
</svg>
